<?xml version="1.0" encoding="utf-8"?>
<!-- Generator: Adobe Illustrator 17.0.2, SVG Export Plug-In . SVG Version: 6.00 Build 0)  -->
<!DOCTYPE svg PUBLIC "-//W3C//DTD SVG 1.1//EN" "http://www.w3.org/Graphics/SVG/1.1/DTD/svg11.dtd">
<svg version="1.1" id="Layer_1" xmlns="http://www.w3.org/2000/svg" xmlns:xlink="http://www.w3.org/1999/xlink" x="0px" y="0px"
	 width="541.473px" height="211.489px" viewBox="0 0 541.473 211.489" enable-background="new 0 0 541.473 211.489"
	 xml:space="preserve">
<path opacity="0.8" fill="#AAD7A8" d="M139.049,17.867c0,0-66.175,18.983-85.053,67.047s16.689,107.008,16.689,107.008
	c-48.064-18.878-71.724-73.146-52.846-121.21S90.985-1.011,139.049,17.867z"/>
<path opacity="0.8" fill="#08486B" d="M17.839,70.713c0,0,18.983,66.175,67.047,85.053s107.008-16.689,107.008-16.689
	c-18.878,48.064-73.146,71.724-121.21,52.846S-1.039,118.777,17.839,70.713z"/>
<path opacity="0.8" fill="#3C8686" d="M70.685,191.922c0,0,66.175-18.983,85.053-67.047S139.049,17.867,139.049,17.867
	c48.064,18.878,71.724,73.146,52.846,121.21S118.749,210.801,70.685,191.922z"/>
<path opacity="0.8" fill="#79BD9B" d="M191.854,139.18c0,0-18.983-66.175-67.047-85.053S17.798,70.816,17.798,70.816
	C36.677,22.752,90.944-0.908,139.008,17.97S210.732,91.116,191.854,139.18z"/>
<g>
	<g>
		<path fill="#414042" d="M226.178,111.699h-16.815l0.449-2.167c1.943-0.796,3.886-1.394,5.829-1.793l29.52-49.25h1.943l8.445,49.25
			c0.897,0.2,1.805,0.437,2.728,0.71c0.921,0.274,1.756,0.635,2.504,1.083l-0.374,2.167h-18.982l0.374-2.167
			c2.242-0.846,4.434-1.444,6.577-1.793l-2.242-13.676H228.57l-7.997,13.676c2.142,0.299,4.135,0.897,5.979,1.793L226.178,111.699z
			 M230.737,90.176h14.797l-2.392-15.843l-0.149-6.427h-0.149l-2.989,6.577L230.737,90.176z"/>
		<path fill="#414042" d="M284.919,78.891c-1.296,0.499-2.754,1.756-4.372,3.774c-1.62,2.018-3.052,4.746-4.297,8.184l-4.484,20.851
			h-6.427l6.95-33.032l-4.559-0.673v-1.868c1.693-0.796,3.462-1.407,5.306-1.831c1.843-0.422,3.512-0.71,5.007-0.859l1.495,0.897
			l-2.093,9.939h0.299c1.445-3.288,3.214-5.916,5.306-7.884c2.093-1.968,4.334-2.952,6.726-2.952c0.647,0,1.295,0.063,1.943,0.187
			c0.646,0.125,1.27,0.362,1.868,0.71c0,0.448-0.075,1.035-0.224,1.756c-0.149,0.723-0.362,1.457-0.635,2.205
			c-0.274,0.747-0.573,1.457-0.897,2.13c-0.325,0.672-0.661,1.184-1.009,1.532L284.919,78.891z"/>
		<path fill="#414042" d="M294.932,76.211c0.996-0.566,2.055-1.082,3.176-1.545c1.121-0.462,2.229-0.823,3.326-1.082l1.196-5.68
			c0.697-0.547,1.506-1.033,2.429-1.457c0.921-0.423,1.88-0.834,2.877-1.233l1.57,0.897l-1.794,8.221h9.267
			c0.099,0.622,0.099,1.271,0,1.943c-0.101,0.674-0.349,1.322-0.748,1.943h-9.267l-4.708,21.564c-0.2,0.942-0.349,1.772-0.448,2.492
			c-0.101,0.72-0.149,1.376-0.149,1.97c0,1.289,0.374,2.231,1.121,2.826c0.747,0.596,1.569,0.892,2.466,0.892
			c1.245,0,2.579-0.236,3.999-0.71c1.42-0.473,2.728-1.009,3.923-1.606l0.822,1.345c-0.449,0.648-1.121,1.296-2.018,1.943
			c-0.896,0.648-1.906,1.246-3.026,1.793c-1.121,0.549-2.292,0.996-3.513,1.345c-1.221,0.348-2.38,0.523-3.475,0.523
			c-2.193,0-3.912-0.497-5.157-1.488c-1.246-0.993-1.868-2.53-1.868-4.614c0-0.693,0.062-1.463,0.187-2.306
			c0.124-0.843,0.286-1.712,0.485-2.605l4.933-23.365h-5.68L294.932,76.211z"/>
		<path fill="#414042" d="M335.138,102.842c-0.051-1.189-0.387-2.216-1.01-3.084c-0.623-0.867-1.42-1.697-2.391-2.49
			c-0.971-0.792-2.006-1.587-3.102-2.384c-1.096-0.796-2.13-1.682-3.102-2.653c-0.971-0.971-1.769-2.092-2.391-3.363
			c-0.624-1.271-0.935-2.803-0.935-4.596s0.348-3.363,1.046-4.708c0.697-1.345,1.656-2.466,2.877-3.363
			c1.22-0.896,2.69-1.581,4.41-2.055c1.719-0.473,3.598-0.71,5.642-0.71c1.295,0,2.752,0.112,4.371,0.336s3.15,0.76,4.596,1.607
			c0,0.549-0.1,1.184-0.299,1.905c-0.199,0.723-0.461,1.42-0.785,2.093c-0.324,0.672-0.684,1.296-1.082,1.868
			c-0.4,0.574-0.822,0.96-1.271,1.159l-5.529-5.68c-1.025,0.05-1.978,0.174-2.857,0.372c-0.877,0.199-1.646,0.52-2.307,0.966
			c-0.658,0.446-1.17,1.028-1.537,1.746c-0.367,0.718-0.549,1.622-0.549,2.711c0,1.29,0.32,2.392,0.96,3.307
			c0.64,0.917,1.44,1.783,2.401,2.601c0.959,0.817,1.994,1.613,3.103,2.384c1.107,0.773,2.143,1.645,3.102,2.616
			c0.961,0.972,1.762,2.093,2.402,3.363c0.639,1.271,0.961,2.778,0.961,4.521c0,1.794-0.412,3.389-1.234,4.783
			c-0.822,1.396-1.943,2.578-3.363,3.55s-3.062,1.707-4.931,2.205s-3.849,0.748-5.941,0.748c-2.093,0-3.999-0.213-5.717-0.635
			c-1.719-0.423-3.077-0.959-4.073-1.607c0.249-1.295,0.548-2.553,0.897-3.774c0.348-1.22,1.071-2.354,2.167-3.4l6.726,6.128
			c1.046,0,2.08-0.124,3.101-0.371s1.943-0.644,2.766-1.189c0.822-0.544,1.494-1.213,2.018-2.006S335.088,103.982,335.138,102.842z"
			/>
		<path fill="#414042" d="M377.363,107.738c2.093,0.299,4.085,0.897,5.979,1.793l-0.374,2.167h-18.982l0.374-2.167
			c0.896-0.398,1.843-0.747,2.84-1.046c0.996-0.299,1.992-0.548,2.989-0.748l9.342-44.317c-0.997-0.299-1.918-0.598-2.765-0.897
			c-0.849-0.299-1.596-0.622-2.242-0.971l0.522-2.167h35.051c-0.453,1.943-0.958,3.937-1.512,5.979
			c-0.555,2.043-1.209,4.086-1.965,6.128h-1.965l-1.285-8.221h-16.665l-4.484,21.299h13.004l4.087-5.53h1.892
			c-0.252,2.242-0.668,4.746-1.247,7.511s-1.222,5.294-1.927,7.585h-1.89l-1.662-5.754h-13.079L377.363,107.738z"/>
		<path fill="#414042" d="M441.931,107.514v1.898c-0.997,0.811-2.204,1.469-3.624,1.976c-1.42,0.505-2.803,0.759-4.148,0.759
			c-1.445,0-2.479-0.299-3.101-0.896c-0.624-0.598-0.935-1.245-0.935-1.943c0-0.896,0.124-2.403,0.374-4.521
			c0.248-2.117,0.796-4.695,1.644-7.735h-0.299c-0.648,1.396-1.457,2.99-2.429,4.783s-2.13,3.488-3.476,5.082
			c-1.345,1.595-2.877,2.94-4.596,4.035c-1.719,1.096-3.625,1.645-5.717,1.645c-1.745,0-3.214-0.611-4.409-1.831
			c-1.196-1.22-1.794-2.952-1.794-5.194c0-1.096,0.174-2.715,0.523-4.858c0.348-2.142,0.771-4.484,1.271-7.025
			c0.497-2.541,1.033-5.144,1.606-7.81c0.572-2.665,1.084-5.069,1.532-7.212l-4.559-0.673v-1.868
			c0.796-0.299,1.655-0.598,2.578-0.897c0.921-0.299,1.843-0.572,2.765-0.822c0.922-0.249,1.806-0.46,2.653-0.635
			c0.847-0.174,1.618-0.286,2.316-0.336l1.645,0.897c-0.798,3.737-1.606,7.287-2.429,10.649c-0.822,3.363-1.582,6.913-2.279,10.649
			c-0.25,1.196-0.512,2.529-0.785,3.999c-0.274,1.47-0.411,3.077-0.411,4.82c0,1.046,0.286,1.894,0.859,2.541
			c0.572,0.648,1.233,0.971,1.98,0.971c1.096,0,2.192-0.323,3.289-0.971c1.095-0.647,2.13-1.495,3.101-2.541
			c0.972-1.046,1.894-2.205,2.766-3.475c0.871-1.271,1.655-2.528,2.354-3.774c0.697-1.245,1.282-2.403,1.757-3.475
			c0.473-1.071,0.834-1.93,1.084-2.578l3.288-16.815h6.202l-6.128,33.182H441.931z"/>
		<path fill="#414042" d="M474.813,90.4c0.349-1.544,0.66-2.977,0.935-4.297c0.273-1.319,0.411-2.627,0.411-3.923
			c0-1.146-0.262-2.117-0.785-2.915c-0.522-0.796-1.357-1.195-2.503-1.195c-1.346,0-2.717,0.549-4.11,1.644
			c-1.396,1.096-2.69,2.417-3.887,3.961c-1.195,1.545-2.279,3.151-3.251,4.82c-0.971,1.669-1.707,3.052-2.204,4.147l-3.961,19.057
			h-6.277l6.576-33.032l-4.559-0.673l0.149-1.868c0.697-0.348,1.481-0.684,2.354-1.009c0.871-0.324,1.768-0.609,2.69-0.859
			c0.921-0.249,1.817-0.449,2.69-0.598c0.871-0.149,1.681-0.224,2.429-0.224l1.494,0.897l-2.84,13.228h0.374
			c0.945-1.992,2.029-3.849,3.251-5.567c1.22-1.719,2.515-3.213,3.886-4.484c1.37-1.271,2.803-2.267,4.297-2.99
			c1.495-0.721,3.015-1.083,4.56-1.083c2.092,0,3.624,0.661,4.596,1.98c0.972,1.321,1.457,2.978,1.457,4.97
			c0,1.097-0.125,2.466-0.373,4.11c-0.25,1.644-0.549,3.189-0.897,4.634l-4.26,18.384h5.53v1.943
			c-0.997,0.798-2.204,1.446-3.624,1.943s-2.803,0.747-4.148,0.747c-1.445,0-2.441-0.299-2.989-0.896
			c-0.549-0.598-0.821-1.245-0.821-1.943c0-0.946,0.123-1.98,0.373-3.101c0.249-1.121,0.498-2.254,0.748-3.4L474.813,90.4z"/>
		<path fill="#414042" d="M513.3,97.051c-0.648,1.794-1.47,3.613-2.466,5.456c-0.998,1.844-2.13,3.513-3.4,5.007
			s-2.666,2.716-4.186,3.662c-1.521,0.946-3.151,1.42-4.895,1.42c-5.183,0-7.772-3.786-7.772-11.36
			c0-3.537,0.497-6.962,1.494-10.276c0.996-3.312,2.44-6.252,4.335-8.818c1.893-2.565,4.185-4.621,6.875-6.166
			c2.69-1.544,5.755-2.317,9.192-2.317c1.295,0,2.267,0.088,2.915,0.262c0.646,0.175,1.469,0.486,2.466,0.934l2.84-14.125
			l-5.231-0.673V58.19c0.748-0.299,1.569-0.585,2.467-0.859c0.896-0.273,1.831-0.523,2.802-0.748
			c0.972-0.224,1.955-0.436,2.952-0.635c0.996-0.198,1.918-0.348,2.766-0.448l1.569,0.597l-10.238,51.418h5.455v1.898
			c-0.997,0.811-2.192,1.469-3.587,1.976c-1.396,0.505-2.766,0.759-4.11,0.759c-1.446,0-2.479-0.312-3.102-0.934
			c-0.624-0.623-0.935-1.282-0.935-1.98c0-0.896,0.174-2.366,0.523-4.409c0.348-2.042,0.871-4.633,1.569-7.772H513.3z
			 M501.492,107.962c1.345,0,2.69-0.635,4.035-1.906c1.346-1.271,2.616-2.799,3.812-4.588c1.195-1.789,2.267-3.651,3.214-5.59
			c0.945-1.938,1.693-3.553,2.242-4.845l2.391-12.744c-0.747-0.497-1.433-0.832-2.055-1.006c-0.624-0.174-1.508-0.286-2.653-0.336
			c-2.392,0.05-4.534,0.783-6.427,2.2c-1.895,1.417-3.488,3.23-4.783,5.442c-1.296,2.211-2.279,4.685-2.952,7.418
			c-0.672,2.733-1.009,5.417-1.009,8.051c0,2.535,0.311,4.486,0.935,5.853C498.864,107.279,499.948,107.962,501.492,107.962z"/>
	</g>
	<g>
		<path fill="#414042" d="M265.544,145.096v2.379h-18.301v-27.241h17.956v2.379H249.89v9.822h13.352v2.264H249.89v10.397H265.544z"
			/>
		<path fill="#414042" d="M290.598,147.475h-2.609V136.31c0-2.379-0.346-4.105-1.036-5.18s-1.765-1.611-3.223-1.611
			c-0.768,0-1.535,0.141-2.302,0.422c-0.768,0.282-1.484,0.678-2.148,1.189c-0.666,0.512-1.247,1.119-1.746,1.823
			c-0.499,0.704-0.876,1.464-1.132,2.283v12.239h-2.609v-19.99h2.379v4.528c0.409-0.716,0.914-1.375,1.516-1.976
			c0.601-0.601,1.272-1.119,2.014-1.554c0.742-0.435,1.528-0.767,2.359-0.998c0.831-0.23,1.694-0.345,2.59-0.345
			c1.125,0,2.065,0.205,2.82,0.614c0.754,0.409,1.362,0.985,1.822,1.726c0.46,0.742,0.792,1.65,0.998,2.724
			c0.205,1.075,0.307,2.264,0.307,3.568V147.475z"/>
		<path fill="#414042" d="M308.132,147.859c-1.381,0-2.661-0.288-3.837-0.863c-1.177-0.576-2.193-1.336-3.05-2.283
			c-0.857-0.946-1.522-2.039-1.995-3.28c-0.474-1.24-0.71-2.538-0.71-3.894c0-1.407,0.23-2.744,0.691-4.01s1.093-2.372,1.899-3.319
			c0.806-0.946,1.765-1.694,2.878-2.244c1.112-0.55,2.333-0.825,3.664-0.825c1.688,0,3.185,0.441,4.489,1.324
			c1.305,0.882,2.34,1.951,3.108,3.204v-12.201h2.609v24.632c0,0.716,0.307,1.074,0.921,1.074v2.302
			c-0.435,0.077-0.78,0.115-1.036,0.115c-0.64,0-1.165-0.186-1.573-0.557c-0.41-0.37-0.614-0.812-0.614-1.324v-2.11
			c-0.819,1.304-1.899,2.34-3.242,3.107C310.99,147.475,309.59,147.859,308.132,147.859z M308.669,145.557
			c0.665,0,1.362-0.127,2.091-0.384c0.729-0.255,1.407-0.607,2.034-1.055c0.626-0.447,1.17-0.972,1.63-1.573
			c0.46-0.601,0.742-1.247,0.844-1.938v-6.177c-0.256-0.691-0.633-1.336-1.132-1.938c-0.499-0.601-1.062-1.132-1.688-1.592
			c-0.627-0.46-1.292-0.818-1.995-1.074c-0.704-0.255-1.4-0.384-2.091-0.384c-1.074,0-2.053,0.23-2.935,0.69
			s-1.63,1.068-2.245,1.823c-0.614,0.754-1.093,1.618-1.438,2.59c-0.346,0.972-0.518,1.97-0.518,2.993
			c0,1.074,0.192,2.098,0.576,3.069c0.383,0.972,0.907,1.822,1.573,2.551c0.665,0.729,1.452,1.311,2.36,1.746
			C306.641,145.34,307.62,145.557,308.669,145.557z"/>
		<path fill="#414042" d="M336.216,147.859c-1.458,0-2.794-0.275-4.009-0.825c-1.215-0.549-2.264-1.298-3.146-2.244
			s-1.567-2.046-2.053-3.3c-0.486-1.253-0.729-2.571-0.729-3.952c0-1.407,0.25-2.737,0.749-3.99c0.499-1.253,1.189-2.353,2.072-3.3
			c0.883-0.946,1.931-1.701,3.146-2.264c1.214-0.562,2.538-0.844,3.97-0.844c1.433,0,2.756,0.282,3.971,0.844
			c1.215,0.563,2.264,1.318,3.146,2.264c0.883,0.947,1.573,2.047,2.072,3.3c0.498,1.253,0.748,2.583,0.748,3.99
			c0,1.381-0.25,2.699-0.748,3.952c-0.499,1.253-1.189,2.354-2.072,3.3s-1.932,1.695-3.146,2.244
			C338.972,147.583,337.649,147.859,336.216,147.859z M328.965,137.576c0,1.126,0.185,2.168,0.556,3.127
			c0.37,0.959,0.883,1.803,1.535,2.532s1.419,1.299,2.302,1.708c0.883,0.409,1.822,0.614,2.82,0.614
			c0.997,0,1.938-0.211,2.819-0.633c0.883-0.422,1.656-0.998,2.321-1.727s1.189-1.579,1.573-2.552
			c0.384-0.972,0.575-2.02,0.575-3.146c0-1.1-0.191-2.142-0.575-3.127c-0.384-0.984-0.908-1.842-1.573-2.571
			s-1.433-1.304-2.302-1.727c-0.87-0.422-1.804-0.633-2.801-0.633c-0.998,0-1.937,0.211-2.82,0.633
			c-0.882,0.422-1.649,1.004-2.302,1.746c-0.652,0.742-1.17,1.605-1.554,2.59C329.157,135.396,328.965,136.451,328.965,137.576z"/>
		<path fill="#414042" d="M378.803,127.485h2.532l-8.556,19.99h-2.187l-4.259-10.206l-4.259,10.206h-2.188l-8.556-19.99h2.494
			l7.289,17.304l3.799-9.132l-3.415-8.134h2.226l2.609,6.522l2.57-6.522h2.226l-3.377,8.134l3.799,9.132L378.803,127.485z"/>
		<path fill="#414042" d="M418.323,147.475h-2.609V136.31c0-2.327-0.364-4.041-1.094-5.141c-0.729-1.1-1.835-1.65-3.318-1.65
			c-0.768,0-1.49,0.141-2.168,0.422c-0.678,0.282-1.305,0.678-1.88,1.189c-0.575,0.512-1.081,1.119-1.516,1.823
			c-0.436,0.704-0.768,1.477-0.998,2.321v12.201h-2.608V136.31c0-2.379-0.358-4.105-1.074-5.18c-0.717-1.074-1.816-1.611-3.3-1.611
			c-1.51,0-2.853,0.524-4.028,1.573c-1.177,1.049-2.021,2.43-2.532,4.144v12.239h-2.609v-19.99h2.379v4.528
			c0.818-1.535,1.893-2.73,3.223-3.587s2.801-1.286,4.412-1.286c1.688,0,3.044,0.474,4.067,1.42
			c1.022,0.946,1.637,2.187,1.842,3.722c1.866-3.428,4.45-5.142,7.75-5.142c1.1,0,2.039,0.205,2.82,0.614
			c0.779,0.409,1.406,0.991,1.88,1.746c0.473,0.754,0.818,1.663,1.036,2.724c0.217,1.062,0.326,2.244,0.326,3.549V147.475z"/>
		<path fill="#414042" d="M436.316,147.859c-1.458,0-2.801-0.275-4.028-0.825c-1.229-0.549-2.29-1.304-3.185-2.264
			c-0.896-0.959-1.593-2.065-2.092-3.319c-0.498-1.253-0.748-2.596-0.748-4.028c0-1.406,0.25-2.73,0.748-3.971
			c0.499-1.24,1.195-2.327,2.092-3.261c0.895-0.933,1.95-1.675,3.165-2.225c1.215-0.55,2.552-0.825,4.01-0.825
			c1.457,0,2.794,0.275,4.009,0.825c1.215,0.55,2.257,1.298,3.127,2.244c0.869,0.947,1.548,2.034,2.033,3.261
			c0.486,1.228,0.729,2.533,0.729,3.914c0,0.205-0.007,0.41-0.02,0.614s-0.032,0.345-0.058,0.422h-17.073
			c0.077,1.074,0.326,2.066,0.748,2.974c0.422,0.908,0.959,1.694,1.611,2.359c0.652,0.666,1.406,1.184,2.264,1.554
			c0.857,0.371,1.771,0.557,2.743,0.557c0.665,0,1.317-0.089,1.957-0.269c0.639-0.179,1.228-0.422,1.765-0.729
			c0.537-0.307,1.018-0.684,1.439-1.132c0.422-0.447,0.748-0.94,0.979-1.477l2.264,0.614c-0.308,0.742-0.742,1.414-1.305,2.014
			c-0.563,0.602-1.216,1.126-1.957,1.573c-0.742,0.448-1.561,0.793-2.455,1.036C438.182,147.737,437.262,147.859,436.316,147.859z
			 M443.682,136.425c-0.076-1.074-0.326-2.053-0.748-2.935c-0.422-0.883-0.959-1.644-1.611-2.283
			c-0.652-0.639-1.414-1.138-2.283-1.496c-0.869-0.358-1.79-0.537-2.762-0.537c-0.973,0-1.894,0.179-2.763,0.537
			c-0.87,0.358-1.631,0.857-2.283,1.496c-0.652,0.64-1.177,1.407-1.573,2.302c-0.396,0.896-0.633,1.868-0.71,2.916H443.682z"/>
		<path fill="#414042" d="M470.731,147.475h-2.608V136.31c0-2.379-0.346-4.105-1.036-5.18s-1.765-1.611-3.223-1.611
			c-0.768,0-1.535,0.141-2.303,0.422c-0.767,0.282-1.483,0.678-2.148,1.189c-0.665,0.512-1.247,1.119-1.745,1.823
			c-0.499,0.704-0.877,1.464-1.132,2.283v12.239h-2.609v-19.99h2.379v4.528c0.409-0.716,0.914-1.375,1.516-1.976
			c0.601-0.601,1.271-1.119,2.014-1.554c0.742-0.435,1.528-0.767,2.36-0.998c0.831-0.23,1.694-0.345,2.59-0.345
			c1.125,0,2.065,0.205,2.819,0.614c0.755,0.409,1.362,0.985,1.823,1.726c0.46,0.742,0.792,1.65,0.997,2.724
			c0.204,1.075,0.307,2.264,0.307,3.568V147.475z"/>
		<path fill="#414042" d="M489.493,146.516c-0.153,0.077-0.378,0.179-0.672,0.307c-0.294,0.128-0.633,0.256-1.017,0.384
			s-0.819,0.243-1.305,0.346c-0.486,0.102-0.997,0.153-1.534,0.153c-0.563,0-1.101-0.077-1.611-0.23
			c-0.513-0.153-0.96-0.39-1.344-0.71c-0.383-0.319-0.69-0.722-0.92-1.208c-0.23-0.485-0.346-1.048-0.346-1.688v-14.311h-2.763
			v-2.072h2.763v-6.752h2.609v6.752h4.604v2.072h-4.604v13.582c0.051,0.742,0.307,1.285,0.767,1.63
			c0.461,0.346,1.011,0.518,1.65,0.518c0.741,0,1.394-0.121,1.956-0.364s0.921-0.416,1.075-0.518L489.493,146.516z"/>
	</g>
</g>
<g>
</g>
<g>
</g>
<g>
</g>
<g>
</g>
<g>
</g>
<g>
</g>
</svg>
