<?xml version="1.0" encoding="utf-8"?>
<!-- Generator: Adobe Illustrator 17.0.2, SVG Export Plug-In . SVG Version: 6.00 Build 0)  -->
<!DOCTYPE svg PUBLIC "-//W3C//DTD SVG 1.1//EN" "http://www.w3.org/Graphics/SVG/1.1/DTD/svg11.dtd">
<svg version="1.1" id="Layer_1" xmlns="http://www.w3.org/2000/svg" xmlns:xlink="http://www.w3.org/1999/xlink" x="0px" y="0px"
	 width="307.297px" height="85.988px" viewBox="0 0 307.297 85.988" enable-background="new 0 0 307.297 85.988"
	 xml:space="preserve">
<g>
	<path fill="#0D79BF" d="M272.679,17.358c-3.497-1.955-8.977-2.945-16.476-2.945c-3.705,0-7.431,0.301-11.17,0.882
		c-2.744,0.421-3.024,0.487-4.73,0.86c-3.507,0.763-4.049,4.273-4.049,4.273l-1.126,4.631c-0.64,2.963,1.049,2.841,1.801,2.61
		c1.532-0.461,2.359-0.919,5.485-1.63c2.984-0.674,6.141-1.186,8.656-1.164c3.689,0,6.502,0.404,8.368,1.181
		c1.864,0.816,2.79,2.208,2.79,4.191c0.007,0.468,0.019,0.915-0.156,1.301c-0.149,0.367-0.443,0.72-1.324,0.835
		c-5.279,0.316-9.055,0.798-13.607,1.458c-4.495,0.63-8.427,1.714-11.712,3.218c-3.502,1.551-6.131,3.634-7.938,6.268
		c-1.753,2.65-2.64,5.853-2.643,9.633c0,3.571,1.281,6.482,3.766,8.738c2.507,2.234,5.772,3.334,9.73,3.334
		c2.466-0.014,4.4-0.191,5.785-0.54c1.372-0.344,2.865-0.833,4.45-1.521c1.179-0.491,2.45-1.206,3.795-2.101
		c1.343-0.901,2.278-1.532,3.474-2.318l0.047,0.072l-0.34,1.486c0,0.018-0.023,0.024-0.023,0.038l0.01,0.023
		c-0.38,1.793,0.692,3.283,2.466,3.456l0.022,0.034h0.152l0.006,0.007c1.181,0,5.214-0.003,7.094-0.007h1.323
		c0.089,0,0.095-0.034,0.13-0.051c1.81-0.224,3.54-1.694,3.954-3.461l6.732-29.079c0.159-0.682,0.277-1.474,0.353-2.378
		c0.082-0.921,0.181-1.676,0.15-2.227C277.944,22.355,276.175,19.309,272.679,17.358z M256.36,52.008
		c-1.143,0.717-2.351,1.334-3.628,1.858c-1.695,0.687-3.311,1.05-4.804,1.05c-2.296,0-4.052-0.323-5.25-1.021
		c-1.19-0.655-1.817-1.799-1.796-3.436c0-1.888,0.439-3.356,1.338-4.507c0.913-1.105,2.263-1.994,3.935-2.658
		c1.664-0.564,3.717-1.031,6.08-1.367c2.105-0.264,6.261-0.741,6.799-0.746c0.533-0.002,0.884-0.3,0.646,1.124
		c-0.107,0.612-1.306,5.543-1.856,7.785C257.661,50.763,256.768,51.742,256.36,52.008z"/>
	<path fill="#15467A" d="M156.792,15.057c-1.977,0-4.567,1.6-5.797,3.538c0,0-13.222,22.658-14.518,24.923
		c-0.703,1.218-1.422,0.445-1.545-0.007c-0.088-0.552-4.094-24.772-4.094-24.772c-0.445-1.95-2.485-3.622-5.032-3.615l-8.241,0.015
		c-1.988,0-3.228,1.588-2.784,3.511c0,0,6.302,35.712,7.529,44.115c0.612,4.641-0.064,5.467-0.064,5.467l-8.169,14.247
		c-1.191,1.93-0.539,3.509,1.439,3.509l9.549-0.009c1.977,0,4.602-1.567,5.774-3.509l36.751-62.151c0,0,3.512-5.309,0.27-5.263
		C165.653,15.086,156.792,15.057,156.792,15.057"/>
	<path fill="#15467A" d="M40.786,27.688c-2.779,2.039-6.632,3.057-11.638,3.057h-2.262c-1.994,0-3.255-1.58-2.812-3.521
		l2.777-11.966c0.422-1.929,2.413-3.528,4.405-3.511l3.016-0.018c3.528,0,6.204,0.604,8.015,1.803
		c1.787,1.171,2.688,3.016,2.661,5.494C44.997,22.757,43.58,25.651,40.786,27.688 M60.706,9.249
		c-1.149-2.239-2.867-4.051-5.055-5.425c-2.281-1.406-4.923-2.371-8.016-2.955C44.536,0.313,40.91,0.041,36.751,0L17.497,0.018
		c-2.001,0.023-3.965,1.592-4.426,3.516L0.092,59.982c-0.451,1.927,0.797,3.526,2.79,3.526h9.226c1.994,0,3.971-1.555,4.416-3.526
		l3.182-13.702c0.426-1.912,2.395-3.497,4.397-3.497h2.639c11.28-0.014,20.029-2.325,26.318-6.939
		c6.281-4.612,9.419-10.721,9.401-18.278C62.479,14.244,61.906,11.468,60.706,9.249"/>
	<path fill="#0D79BF" d="M208.277,27.922c-2.767,2.012-6.65,3.015-11.641,3.015h-2.291c-1.99,0.026-3.27-1.58-2.799-3.502
		l2.772-11.987c0.405-1.893,2.421-3.511,4.379-3.493l3.034-0.018c3.539,0.018,6.189,0.61,8.018,1.788
		c1.799,1.193,2.665,3.043,2.678,5.504C212.434,22.977,211.049,25.866,208.277,27.922 M228.183,9.454
		c-1.151-2.237-2.885-4.036-5.085-5.439c-2.25-1.399-4.922-2.377-8.016-2.941c-3.063-0.543-6.702-0.848-10.85-0.857l-19.3,0.009
		c-1.987,0.034-3.936,1.593-4.395,3.516l-12.97,56.464c-0.477,1.918,0.813,3.52,2.765,3.505l9.261-0.015
		c1.965,0.015,3.964-1.572,4.428-3.49l3.127-13.702c0.442-1.921,2.438-3.528,4.431-3.5h2.633c11.301,0,20.056-2.324,26.329-6.939
		c6.253-4.645,9.404-10.732,9.404-18.308C229.921,14.451,229.356,11.662,228.183,9.454"/>
	<path fill="#15467A" d="M105.167,17.315c-3.504-1.957-8.98-2.943-16.476-2.943c-3.706,0-7.432,0.298-11.17,0.876
		c-2.748,0.417-3.027,0.488-4.731,0.86c-3.51,0.765-4.048,4.276-4.048,4.276l-1.127,4.63c-0.639,2.966,1.05,2.842,1.8,2.611
		c1.53-0.461,2.362-0.918,5.49-1.628c2.98-0.676,6.134-1.183,8.652-1.165c3.694,0,6.5,0.403,8.364,1.186
		c1.868,0.815,2.788,2.201,2.788,4.178c0.015,0.476,0.021,0.926-0.14,1.308c-0.162,0.37-0.456,0.716-1.34,0.835
		c-5.266,0.318-9.041,0.8-13.606,1.462c-4.494,0.634-8.423,1.715-11.712,3.218c-3.506,1.552-6.125,3.634-7.93,6.267
		c-1.761,2.651-2.643,5.856-2.646,9.632c0,3.569,1.282,6.484,3.76,8.738c2.516,2.232,5.777,3.337,9.731,3.337
		c2.466-0.017,4.404-0.196,5.792-0.543c1.367-0.349,2.868-0.833,4.438-1.517c1.185-0.499,2.456-1.21,3.802-2.104
		c1.346-0.894,2.28-1.535,3.479-2.313l0.04,0.067l-0.341,1.48c0,0.019-0.022,0.029-0.022,0.046l0.018,0.022
		c-0.385,1.792,0.687,3.282,2.46,3.452l0.021,0.035h0.153l0.008,0.011c1.176,0,5.214-0.006,7.1-0.011h1.314
		c0.087,0,0.102-0.031,0.128-0.047c1.816-0.23,3.543-1.701,3.956-3.461l6.737-29.084c0.15-0.678,0.273-1.471,0.343-2.375
		c0.086-0.925,0.188-1.678,0.163-2.222C110.431,22.315,108.661,19.271,105.167,17.315z M88.846,51.96
		c-1.144,0.726-2.351,1.34-3.622,1.862c-1.7,0.685-3.321,1.046-4.815,1.046c-2.286,0-4.048-0.323-5.243-1.012
		c-1.192-0.66-1.817-1.804-1.803-3.44c0-1.888,0.444-3.356,1.345-4.503c0.907-1.112,2.257-1.999,3.932-2.665
		c1.67-0.567,3.724-1.026,6.082-1.358c2.104-0.263,6.264-0.739,6.795-0.75c0.527,0,0.883-0.295,0.646,1.121
		c-0.1,0.615-1.3,5.549-1.856,7.787C90.144,50.723,89.251,51.7,88.846,51.96z"/>
	<g>
		<g>
			<path fill="#0D79BF" d="M304.487,0.684h-8.257c-0.003,0-0.005,0.001-0.008,0.001l-0.002-0.001c-1.902,0-3.837,1.465-4.356,3.32
				c-0.019,0.064-0.05,0.125-0.066,0.19c0,0-0.154,0.701-0.424,1.935l-11.449,51.897c-0.266,1.175-0.44,1.926-0.493,2.124
				l0.021,0.03c-0.387,1.794,0.694,3.282,2.463,3.449l0.024,0.033h8.565c1.885,0,3.809-1.452,4.342-3.286
				c0.024-0.076,0.059-0.149,0.078-0.227l12.373-55.96l-0.022-0.007C307.693,2.268,306.463,0.684,304.487,0.684z"/>
		</g>
	</g>
</g>
<g>
</g>
<g>
</g>
<g>
</g>
<g>
</g>
<g>
</g>
<g>
</g>
</svg>
